<svg id="logo" xmlns="http://www.w3.org/2000/svg" xmlns:xlink="http://www.w3.org/1999/xlink" viewBox="0 0 32 32"><defs><style>.cls-1{fill-rule:evenodd;fill:url(#linear-gradient);}</style><linearGradient id="linear-gradient" x1="1.39" y1="30.61" x2="30.61" y2="1.39" gradientUnits="userSpaceOnUse"><stop offset="0" stop-color="#9945ff"/><stop offset="0.2" stop-color="#7962e7"/><stop offset="1" stop-color="#00d18c"/></linearGradient></defs><path class="cls-1" d="M5.79,23.35A1.08,1.08,0,0,1,6.58,23L31,23a.54.54,0,0,1,.39.9l-5.2,5.73a1.08,1.08,0,0,1-.79.35L1,30a.54.54,0,0,1-.39-.9Zm25.62-4.77a.54.54,0,0,1-.39.9l-24.44,0a1.08,1.08,0,0,1-.79-.35L.59,13.42a.54.54,0,0,1,.39-.9l24.44,0a1.08,1.08,0,0,1,.79.35ZM5.79,2.35A1.08,1.08,0,0,1,6.58,2L31,2a.54.54,0,0,1,.39.9l-5.2,5.73a1.08,1.08,0,0,1-.79.35L1,9a.54.54,0,0,1-.39-.9Z"/></svg>