<?xml version="1.0" encoding="UTF-8"?><svg xmlns="http://www.w3.org/2000/svg" xmlns:xlink="http://www.w3.org/1999/xlink" width="375pt" zoomAndPan="magnify" viewBox="0 0 375 374.999991" height="374.999991pt" preserveAspectRatio="xMidYMid meet" version="1.2"><defs><g/><clipPath xml:id="clip1" id="clip1"><path d="M 181 143.8125 L 334.738281 143.8125 L 334.738281 233.0625 L 181 233.0625 Z M 181 143.8125 "/></clipPath></defs><g xml:id="surface1" id="surface1"><path style=" stroke:none;fill-rule:nonzero;fill:rgb(0%,81.959534%,54.899597%);fill-opacity:1;" d="M 223.449219 205.441406 C 226.074219 205.441406 227.480469 205 228.757812 203.792969 C 230.292969 202.277344 230.421875 201.519531 230.421875 189.890625 C 230.421875 177.816406 230.292969 177.503906 228.566406 176.113281 C 227.417969 175.101562 225.625 174.660156 223.195312 174.660156 L 219.484375 174.660156 L 219.613281 190.082031 L 219.867188 205.566406 Z M 223.449219 205.441406 "/><g clip-rule="nonzero" clip-path="url(#clip1)"><path style=" stroke:none;fill-rule:nonzero;fill:rgb(0%,81.959534%,54.899597%);fill-opacity:1;" d="M 181.105469 233.0625 L 334.625 233.0625 L 334.625 143.8125 L 181.105469 143.8125 Z M 278.652344 166.566406 C 281.214844 166.566406 283.453125 166.691406 283.453125 166.882812 C 283.453125 167.257812 290.871094 195.578125 291.511719 197.414062 C 291.765625 198.363281 293.558594 192.988281 296.179688 182.878906 L 300.402344 166.949219 L 305.136719 166.691406 C 307.695312 166.566406 309.804688 166.691406 309.804688 166.949219 C 309.804688 167.832031 299.125 207.277344 298.292969 209.167969 L 298.355469 209.167969 C 297.269531 211.882812 294.261719 214.160156 291.960938 214.160156 C 290.808594 214.160156 289.082031 213.210938 287.671875 211.695312 C 285.625 209.671875 284.796875 207.710938 282.429688 198.546875 L 276.671875 177.121094 L 273.792969 166.566406 Z M 244.304688 190.523438 C 244.304688 171.433594 244.367188 170.421875 245.902344 168.527344 C 247.375 166.570312 247.503906 166.570312 257.929688 166.570312 L 268.417969 166.570312 L 268.417969 174.726562 L 252.621094 174.726562 L 252.621094 185.914062 L 262.34375 185.914062 L 262.34375 194.003906 L 257.738281 194.257812 L 252.9375 194.449219 L 252.9375 205.636719 L 260.742188 205.828125 L 268.417969 206.082031 L 268.417969 214.171875 L 258.183594 214.171875 C 248.398438 214.171875 247.949219 214.109375 246.222656 212.28125 L 244.304688 210.507812 Z M 211.234375 166.5 L 220.1875 166.5 C 230.871094 166.5 234.003906 167.636719 236.820312 172.1875 C 238.546875 174.910156 238.675781 175.988281 238.867188 188.4375 C 239.1875 202.53125 238.738281 205.695312 235.859375 209.296875 C 233.046875 212.960938 229.078125 214.160156 219.675781 214.160156 L 211.234375 214.160156 Z M 211.234375 166.5 "/></g><g style="fill:rgb(0%,0%,0%);fill-opacity:1;"><g transform="translate(51.152345, 215.564429)"><path style="stroke:none;" d="M 20.953125 -15.203125 L 12.015625 -19.125 C 8.359375 -20.738281 5.765625 -22.578125 4.234375 -24.640625 C 2.710938 -26.710938 1.953125 -29.398438 1.953125 -32.703125 C 1.953125 -37.753906 3.320312 -41.222656 6.0625 -43.109375 C 8.8125 -45.003906 13.625 -45.953125 20.5 -45.953125 C 27.070312 -45.953125 32.535156 -45.191406 36.890625 -43.671875 L 36.03125 -34.59375 C 30.8125 -34.6875 25.523438 -34.734375 20.171875 -34.734375 C 18.515625 -34.734375 17.40625 -34.625 16.84375 -34.40625 C 16.28125 -34.1875 16 -33.726562 16 -33.03125 C 16 -32.425781 16.269531 -31.914062 16.8125 -31.5 C 17.351562 -31.082031 18.382812 -30.570312 19.90625 -29.96875 L 28.078125 -26.5625 C 31.773438 -24.957031 34.382812 -23.109375 35.90625 -21.015625 C 37.425781 -18.929688 38.1875 -16.210938 38.1875 -12.859375 C 38.1875 -7.765625 36.859375 -4.195312 34.203125 -2.15625 C 31.546875 -0.113281 26.738281 0.90625 19.78125 0.90625 C 13.90625 0.90625 8.09375 0.164062 2.34375 -1.3125 L 3.203125 -11.234375 C 11.816406 -11.015625 17.273438 -10.90625 19.578125 -10.90625 C 21.367188 -10.90625 22.554688 -11.015625 23.140625 -11.234375 C 23.734375 -11.453125 24.03125 -11.863281 24.03125 -12.46875 C 24.03125 -13.070312 23.820312 -13.570312 23.40625 -13.96875 C 22.988281 -14.363281 22.171875 -14.773438 20.953125 -15.203125 Z M 20.953125 -15.203125 "/></g></g><g style="fill:rgb(0%,0%,0%);fill-opacity:1;"><g transform="translate(90.969188, 215.564429)"><path style="stroke:none;" d="M 23.046875 -45.953125 C 28.398438 -45.953125 32.546875 -45.285156 35.484375 -43.953125 C 38.421875 -42.628906 40.582031 -40.28125 41.96875 -36.90625 C 43.363281 -33.539062 44.0625 -28.742188 44.0625 -22.515625 C 44.0625 -16.296875 43.363281 -11.5 41.96875 -8.125 C 40.582031 -4.75 38.421875 -2.398438 35.484375 -1.078125 C 32.546875 0.242188 28.398438 0.90625 23.046875 0.90625 C 17.734375 0.90625 13.609375 0.242188 10.671875 -1.078125 C 7.734375 -2.398438 5.566406 -4.75 4.171875 -8.125 C 2.785156 -11.5 2.09375 -16.296875 2.09375 -22.515625 C 2.09375 -28.742188 2.785156 -33.539062 4.171875 -36.90625 C 5.566406 -40.28125 7.734375 -42.628906 10.671875 -43.953125 C 13.609375 -45.285156 17.734375 -45.953125 23.046875 -45.953125 Z M 27.90625 -32.875 C 27.101562 -34.59375 25.484375 -35.453125 23.046875 -35.453125 C 20.609375 -35.453125 18.984375 -34.59375 18.171875 -32.875 C 17.367188 -31.15625 16.96875 -27.703125 16.96875 -22.515625 C 16.96875 -17.335938 17.367188 -13.890625 18.171875 -12.171875 C 18.984375 -10.453125 20.609375 -9.59375 23.046875 -9.59375 C 25.484375 -9.59375 27.101562 -10.453125 27.90625 -12.171875 C 28.707031 -13.890625 29.109375 -17.335938 29.109375 -22.515625 C 29.109375 -27.703125 28.707031 -31.15625 27.90625 -32.875 Z M 27.90625 -32.875 "/></g></g><g style="fill:rgb(0%,0%,0%);fill-opacity:1;"><g transform="translate(137.117565, 215.564429)"><path style="stroke:none;" d="M 17.4375 -45.046875 L 17.4375 -13.578125 C 17.4375 -12.878906 17.6875 -12.3125 18.1875 -11.875 C 18.6875 -11.445312 19.347656 -11.234375 20.171875 -11.234375 L 35.3125 -11.234375 L 35.96875 -0.65625 C 31.488281 -0.0390625 24.15625 0.265625 13.96875 0.265625 C 10.75 0.265625 8.160156 -0.679688 6.203125 -2.578125 C 4.242188 -4.472656 3.265625 -6.941406 3.265625 -9.984375 L 3.265625 -45.046875 Z M 17.4375 -45.046875 "/></g></g></g></svg>