<svg version="1.1" xmlns="http://www.w3.org/2000/svg" viewBox="0 0 365.173828125 1615.1708984375" width="730.34765625" height="3230.341796875">
  <!-- svg-source:excalidraw -->
  
  <defs>
    <style>
      @font-face {
        font-family: "Virgil";
        src: url("https://plus.excalidraw.com/Virgil.woff2");
      }
      @font-face {
        font-family: "Cascadia";
        src: url("https://plus.excalidraw.com/Cascadia.woff2");
      }
    </style>
  </defs>
  <rect x="0" y="0" width="365.173828125" height="1615.1708984375" fill="#ffffff"></rect><g stroke-linecap="round" transform="translate(16.005859375 10) rotate(0 168.6953125 87.212890625)"><path d="M0 0 C134.63 0, 269.26 0, 337.39 0 M337.39 0 C337.39 68.8, 337.39 137.61, 337.39 174.43 M337.39 174.43 C268.96 174.43, 200.53 174.43, 0 174.43 M0 174.43 C0 135.76, 0 97.09, 0 0" stroke="#000000" stroke-width="1.5" fill="none" stroke-dasharray="8 9"></path></g><g stroke-linecap="round" transform="translate(26.732421875 24.12109375) rotate(0 12.646484375 11.875)"><path d="M12.65 0 C15.22 -0.15, 18.7 1.14, 20.78 2.78 C22.85 4.41, 24.63 7.31, 25.1 9.81 C25.57 12.32, 24.95 15.61, 23.6 17.81 C22.24 20.02, 19.52 22.16, 16.97 23.03 C14.43 23.9, 10.87 23.9, 8.32 23.03 C5.77 22.16, 3.05 20.02, 1.69 17.81 C0.34 15.61, -0.28 12.32, 0.19 9.81 C0.66 7.31, 2.44 4.41, 4.52 2.78 C6.59 1.14, 11.29 0.42, 12.65 0 C14 -0.42, 12.65 0.04, 12.65 0.24" stroke="none" stroke-width="0" fill="#7950f2"></path><path d="M12.65 0 C15.22 -0.15, 18.7 1.14, 20.78 2.78 C22.85 4.41, 24.63 7.31, 25.1 9.81 C25.57 12.32, 24.95 15.61, 23.6 17.81 C22.24 20.02, 19.52 22.16, 16.97 23.03 C14.43 23.9, 10.87 23.9, 8.32 23.03 C5.77 22.16, 3.05 20.02, 1.69 17.81 C0.34 15.61, -0.28 12.32, 0.19 9.81 C0.66 7.31, 2.44 4.41, 4.52 2.78 C6.59 1.14, 11.29 0.42, 12.65 0 C14 -0.42, 12.65 0.04, 12.65 0.24" stroke="#000000" stroke-width="1.5" fill="none" stroke-dasharray="8 9"></path></g><g transform="translate(64.876953125 25.9140625) rotate(0 36 12.5)"><text x="0" y="18" font-family="Virgil, Segoe UI Emoji" font-size="20px" fill="#000000" text-anchor="start" style="white-space: pre;" direction="ltr">Discord</text></g><g transform="translate(35.349609375 65.69921875) rotate(0 150 50)"><text x="0" y="14" font-family="Virgil, Segoe UI Emoji" font-size="16px" fill="#000000" text-anchor="start" style="white-space: pre;" direction="ltr">Lorem Ipsum is simply dummy text of </text><text x="0" y="34" font-family="Virgil, Segoe UI Emoji" font-size="16px" fill="#000000" text-anchor="start" style="white-space: pre;" direction="ltr">the printing and typesetting industry. </text><text x="0" y="54" font-family="Virgil, Segoe UI Emoji" font-size="16px" fill="#000000" text-anchor="start" style="white-space: pre;" direction="ltr">Lorem Ipsum has been the industry's </text><text x="0" y="74" font-family="Virgil, Segoe UI Emoji" font-size="16px" fill="#000000" text-anchor="start" style="white-space: pre;" direction="ltr">standard dummy text ever since the </text><text x="0" y="94" font-family="Virgil, Segoe UI Emoji" font-size="16px" fill="#000000" text-anchor="start" style="white-space: pre;" direction="ltr">1500s, when an unknown printer took </text></g><g transform="translate(245.076171875 30.44921875) rotate(0 36 10)"><text x="0" y="14" font-family="Virgil, Segoe UI Emoji" font-size="16px" fill="#000000" text-anchor="start" style="white-space: pre;" direction="ltr">John Doe</text></g><g stroke-linecap="round" transform="translate(17.783203125 214.966796875) rotate(0 168.6953125 87.212890625)"><path d="M0 0 C89.74 0, 179.48 0, 337.39 0 M337.39 0 C337.39 50.36, 337.39 100.71, 337.39 174.43 M337.39 174.43 C264.94 174.43, 192.5 174.43, 0 174.43 M0 174.43 C0 112.17, 0 49.92, 0 0" stroke="#000000" stroke-width="1.5" fill="none" stroke-dasharray="8 9"></path></g><g stroke-linecap="round" transform="translate(28.509765625 229.087890625) rotate(0 12.646484375 11.875)"><path d="M12.65 0 C15.22 -0.15, 18.7 1.14, 20.78 2.78 C22.85 4.41, 24.63 7.31, 25.1 9.81 C25.57 12.32, 24.95 15.61, 23.6 17.81 C22.24 20.02, 19.52 22.16, 16.97 23.03 C14.43 23.9, 10.87 23.9, 8.32 23.03 C5.77 22.16, 3.05 20.02, 1.69 17.81 C0.34 15.61, -0.28 12.32, 0.19 9.81 C0.66 7.31, 2.44 4.41, 4.52 2.78 C6.59 1.14, 11.29 0.42, 12.65 0 C14 -0.42, 12.65 0.04, 12.65 0.24" stroke="none" stroke-width="0" fill="#40c057"></path><path d="M12.65 0 C15.22 -0.15, 18.7 1.14, 20.78 2.78 C22.85 4.41, 24.63 7.31, 25.1 9.81 C25.57 12.32, 24.95 15.61, 23.6 17.81 C22.24 20.02, 19.52 22.16, 16.97 23.03 C14.43 23.9, 10.87 23.9, 8.32 23.03 C5.77 22.16, 3.05 20.02, 1.69 17.81 C0.34 15.61, -0.28 12.32, 0.19 9.81 C0.66 7.31, 2.44 4.41, 4.52 2.78 C6.59 1.14, 11.29 0.42, 12.65 0 C14 -0.42, 12.65 0.04, 12.65 0.24" stroke="#000000" stroke-width="1.5" fill="none" stroke-dasharray="8 9"></path></g><g transform="translate(66.654296875 230.880859375) rotate(0 37.5 12.5)"><text x="0" y="18" font-family="Virgil, Segoe UI Emoji" font-size="20px" fill="#000000" text-anchor="start" style="white-space: pre;" direction="ltr">Twitter</text></g><g transform="translate(37.126953125 270.666015625) rotate(0 150 50)"><text x="0" y="14" font-family="Virgil, Segoe UI Emoji" font-size="16px" fill="#000000" text-anchor="start" style="white-space: pre;" direction="ltr">Lorem Ipsum is simply dummy text of </text><text x="0" y="34" font-family="Virgil, Segoe UI Emoji" font-size="16px" fill="#000000" text-anchor="start" style="white-space: pre;" direction="ltr">the printing and typesetting industry. </text><text x="0" y="54" font-family="Virgil, Segoe UI Emoji" font-size="16px" fill="#000000" text-anchor="start" style="white-space: pre;" direction="ltr">Lorem Ipsum has been the industry's </text><text x="0" y="74" font-family="Virgil, Segoe UI Emoji" font-size="16px" fill="#000000" text-anchor="start" style="white-space: pre;" direction="ltr">standard dummy text ever since the </text><text x="0" y="94" font-family="Virgil, Segoe UI Emoji" font-size="16px" fill="#000000" text-anchor="start" style="white-space: pre;" direction="ltr">1500s, when an unknown printer took </text></g><g transform="translate(246.853515625 235.416015625) rotate(0 36 10)"><text x="0" y="14" font-family="Virgil, Segoe UI Emoji" font-size="16px" fill="#000000" text-anchor="start" style="white-space: pre;" direction="ltr">John Doe</text></g><g stroke-linecap="round" transform="translate(16.580078125 421.353515625) rotate(0 168.6953125 87.212890625)"><path d="M0 0 C71.74 0, 143.47 0, 337.39 0 M337.39 0 C337.39 65.8, 337.39 131.59, 337.39 174.43 M337.39 174.43 C269.9 174.43, 202.4 174.43, 0 174.43 M0 174.43 C0 114.22, 0 54.01, 0 0" stroke="#000000" stroke-width="1.5" fill="none" stroke-dasharray="8 9"></path></g><g stroke-linecap="round" transform="translate(27.306640625 435.474609375) rotate(0 12.646484375 11.875)"><path d="M12.65 0 C15.22 -0.15, 18.7 1.14, 20.78 2.78 C22.85 4.41, 24.63 7.31, 25.1 9.81 C25.57 12.32, 24.95 15.61, 23.6 17.81 C22.24 20.02, 19.52 22.16, 16.97 23.03 C14.43 23.9, 10.87 23.9, 8.32 23.03 C5.77 22.16, 3.05 20.02, 1.69 17.81 C0.34 15.61, -0.28 12.32, 0.19 9.81 C0.66 7.31, 2.44 4.41, 4.52 2.78 C6.59 1.14, 11.29 0.42, 12.65 0 C14 -0.42, 12.65 0.04, 12.65 0.24" stroke="none" stroke-width="0" fill="#228be6"></path><path d="M12.65 0 C15.22 -0.15, 18.7 1.14, 20.78 2.78 C22.85 4.41, 24.63 7.31, 25.1 9.81 C25.57 12.32, 24.95 15.61, 23.6 17.81 C22.24 20.02, 19.52 22.16, 16.97 23.03 C14.43 23.9, 10.87 23.9, 8.32 23.03 C5.77 22.16, 3.05 20.02, 1.69 17.81 C0.34 15.61, -0.28 12.32, 0.19 9.81 C0.66 7.31, 2.44 4.41, 4.52 2.78 C6.59 1.14, 11.29 0.42, 12.65 0 C14 -0.42, 12.65 0.04, 12.65 0.24" stroke="#000000" stroke-width="1.5" fill="none" stroke-dasharray="8 9"></path></g><g transform="translate(64.302734375 436.884765625) rotate(0 31.5 12.5)"><text x="0" y="18" font-family="Virgil, Segoe UI Emoji" font-size="20px" fill="#000000" text-anchor="start" style="white-space: pre;" direction="ltr">Github</text></g><g transform="translate(35.923828125 477.052734375) rotate(0 150 50)"><text x="0" y="14" font-family="Virgil, Segoe UI Emoji" font-size="16px" fill="#000000" text-anchor="start" style="white-space: pre;" direction="ltr">Lorem Ipsum is simply dummy text of </text><text x="0" y="34" font-family="Virgil, Segoe UI Emoji" font-size="16px" fill="#000000" text-anchor="start" style="white-space: pre;" direction="ltr">the printing and typesetting industry. </text><text x="0" y="54" font-family="Virgil, Segoe UI Emoji" font-size="16px" fill="#000000" text-anchor="start" style="white-space: pre;" direction="ltr">Lorem Ipsum has been the industry's </text><text x="0" y="74" font-family="Virgil, Segoe UI Emoji" font-size="16px" fill="#000000" text-anchor="start" style="white-space: pre;" direction="ltr">standard dummy text ever since the </text><text x="0" y="94" font-family="Virgil, Segoe UI Emoji" font-size="16px" fill="#000000" text-anchor="start" style="white-space: pre;" direction="ltr">1500s, when an unknown printer took </text></g><g transform="translate(245.650390625 441.802734375) rotate(0 36 10)"><text x="0" y="14" font-family="Virgil, Segoe UI Emoji" font-size="16px" fill="#000000" text-anchor="start" style="white-space: pre;" direction="ltr">John Doe</text></g><g stroke-linecap="round" transform="translate(16.439453125 618.748046875) rotate(0 168.6953125 87.212890625)"><path d="M0 0 C111.28 0, 222.56 0, 337.39 0 M337.39 0 C337.39 38.62, 337.39 77.23, 337.39 174.43 M337.39 174.43 C228.81 174.43, 120.23 174.43, 0 174.43 M0 174.43 C0 138.02, 0 101.61, 0 0" stroke="#000000" stroke-width="1.5" fill="none" stroke-dasharray="8 9"></path></g><g stroke-linecap="round" transform="translate(27.166015625 632.869140625) rotate(0 12.646484375 11.875)"><path d="M12.65 0 C15.22 -0.15, 18.7 1.14, 20.78 2.78 C22.85 4.41, 24.63 7.31, 25.1 9.81 C25.57 12.32, 24.95 15.61, 23.6 17.81 C22.24 20.02, 19.52 22.16, 16.97 23.03 C14.43 23.9, 10.87 23.9, 8.32 23.03 C5.77 22.16, 3.05 20.02, 1.69 17.81 C0.34 15.61, -0.28 12.32, 0.19 9.81 C0.66 7.31, 2.44 4.41, 4.52 2.78 C6.59 1.14, 11.29 0.42, 12.65 0 C14 -0.42, 12.65 0.04, 12.65 0.24" stroke="none" stroke-width="0" fill="#40c057"></path><path d="M12.65 0 C15.22 -0.15, 18.7 1.14, 20.78 2.78 C22.85 4.41, 24.63 7.31, 25.1 9.81 C25.57 12.32, 24.95 15.61, 23.6 17.81 C22.24 20.02, 19.52 22.16, 16.97 23.03 C14.43 23.9, 10.87 23.9, 8.32 23.03 C5.77 22.16, 3.05 20.02, 1.69 17.81 C0.34 15.61, -0.28 12.32, 0.19 9.81 C0.66 7.31, 2.44 4.41, 4.52 2.78 C6.59 1.14, 11.29 0.42, 12.65 0 C14 -0.42, 12.65 0.04, 12.65 0.24" stroke="#000000" stroke-width="1.5" fill="none" stroke-dasharray="8 9"></path></g><g transform="translate(65.310546875 634.662109375) rotate(0 37.5 12.5)"><text x="0" y="18" font-family="Virgil, Segoe UI Emoji" font-size="20px" fill="#000000" text-anchor="start" style="white-space: pre;" direction="ltr">Twitter</text></g><g transform="translate(35.783203125 674.447265625) rotate(0 150 50)"><text x="0" y="14" font-family="Virgil, Segoe UI Emoji" font-size="16px" fill="#000000" text-anchor="start" style="white-space: pre;" direction="ltr">Lorem Ipsum is simply dummy text of </text><text x="0" y="34" font-family="Virgil, Segoe UI Emoji" font-size="16px" fill="#000000" text-anchor="start" style="white-space: pre;" direction="ltr">the printing and typesetting industry. </text><text x="0" y="54" font-family="Virgil, Segoe UI Emoji" font-size="16px" fill="#000000" text-anchor="start" style="white-space: pre;" direction="ltr">Lorem Ipsum has been the industry's </text><text x="0" y="74" font-family="Virgil, Segoe UI Emoji" font-size="16px" fill="#000000" text-anchor="start" style="white-space: pre;" direction="ltr">standard dummy text ever since the </text><text x="0" y="94" font-family="Virgil, Segoe UI Emoji" font-size="16px" fill="#000000" text-anchor="start" style="white-space: pre;" direction="ltr">1500s, when an unknown printer took </text></g><g transform="translate(245.509765625 639.197265625) rotate(0 36 10)"><text x="0" y="14" font-family="Virgil, Segoe UI Emoji" font-size="16px" fill="#000000" text-anchor="start" style="white-space: pre;" direction="ltr">John Doe</text></g><g stroke-linecap="round" transform="translate(12.982421875 818.162109375) rotate(0 168.6953125 87.212890625)"><path d="M0 0 C94.22 0, 188.44 0, 337.39 0 M337.39 0 C337.39 47.35, 337.39 94.7, 337.39 174.43 M337.39 174.43 C233.16 174.43, 128.92 174.43, 0 174.43 M0 174.43 C0 120.7, 0 66.97, 0 0" stroke="#000000" stroke-width="1.5" fill="none" stroke-dasharray="8 9"></path></g><g stroke-linecap="round" transform="translate(23.708984375 832.283203125) rotate(0 12.646484375 11.875)"><path d="M12.65 0 C15.22 -0.15, 18.7 1.14, 20.78 2.78 C22.85 4.41, 24.63 7.31, 25.1 9.81 C25.57 12.32, 24.95 15.61, 23.6 17.81 C22.24 20.02, 19.52 22.16, 16.97 23.03 C14.43 23.9, 10.87 23.9, 8.32 23.03 C5.77 22.16, 3.05 20.02, 1.69 17.81 C0.34 15.61, -0.28 12.32, 0.19 9.81 C0.66 7.31, 2.44 4.41, 4.52 2.78 C6.59 1.14, 11.29 0.42, 12.65 0 C14 -0.42, 12.65 0.04, 12.65 0.24" stroke="none" stroke-width="0" fill="#7950f2"></path><path d="M12.65 0 C15.22 -0.15, 18.7 1.14, 20.78 2.78 C22.85 4.41, 24.63 7.31, 25.1 9.81 C25.57 12.32, 24.95 15.61, 23.6 17.81 C22.24 20.02, 19.52 22.16, 16.97 23.03 C14.43 23.9, 10.87 23.9, 8.32 23.03 C5.77 22.16, 3.05 20.02, 1.69 17.81 C0.34 15.61, -0.28 12.32, 0.19 9.81 C0.66 7.31, 2.44 4.41, 4.52 2.78 C6.59 1.14, 11.29 0.42, 12.65 0 C14 -0.42, 12.65 0.04, 12.65 0.24" stroke="#000000" stroke-width="1.5" fill="none" stroke-dasharray="8 9"></path></g><g transform="translate(61.853515625 834.076171875) rotate(0 36 12.5)"><text x="0" y="18" font-family="Virgil, Segoe UI Emoji" font-size="20px" fill="#000000" text-anchor="start" style="white-space: pre;" direction="ltr">Discord</text></g><g transform="translate(32.326171875 873.861328125) rotate(0 150 50)"><text x="0" y="14" font-family="Virgil, Segoe UI Emoji" font-size="16px" fill="#000000" text-anchor="start" style="white-space: pre;" direction="ltr">Lorem Ipsum is simply dummy text of </text><text x="0" y="34" font-family="Virgil, Segoe UI Emoji" font-size="16px" fill="#000000" text-anchor="start" style="white-space: pre;" direction="ltr">the printing and typesetting industry. </text><text x="0" y="54" font-family="Virgil, Segoe UI Emoji" font-size="16px" fill="#000000" text-anchor="start" style="white-space: pre;" direction="ltr">Lorem Ipsum has been the industry's </text><text x="0" y="74" font-family="Virgil, Segoe UI Emoji" font-size="16px" fill="#000000" text-anchor="start" style="white-space: pre;" direction="ltr">standard dummy text ever since the </text><text x="0" y="94" font-family="Virgil, Segoe UI Emoji" font-size="16px" fill="#000000" text-anchor="start" style="white-space: pre;" direction="ltr">1500s, when an unknown printer took </text></g><g transform="translate(242.052734375 838.611328125) rotate(0 36 10)"><text x="0" y="14" font-family="Virgil, Segoe UI Emoji" font-size="16px" fill="#000000" text-anchor="start" style="white-space: pre;" direction="ltr">John Doe</text></g><g stroke-linecap="round" transform="translate(10 1019.3916015625) rotate(0 168.6953125 87.212890625)"><path d="M0 0 C80.62 0, 161.23 0, 337.39 0 M337.39 0 C337.39 50.93, 337.39 101.86, 337.39 174.43 M337.39 174.43 C260.39 174.43, 183.38 174.43, 0 174.43 M0 174.43 C0 134.36, 0 94.28, 0 0" stroke="#000000" stroke-width="1.5" fill="none" stroke-dasharray="8 9"></path></g><g stroke-linecap="round" transform="translate(20.7265625 1033.5126953125) rotate(0 12.646484375 11.875)"><path d="M12.65 0 C15.22 -0.15, 18.7 1.14, 20.78 2.78 C22.85 4.41, 24.63 7.31, 25.1 9.81 C25.57 12.32, 24.95 15.61, 23.6 17.81 C22.24 20.02, 19.52 22.16, 16.97 23.03 C14.43 23.9, 10.87 23.9, 8.32 23.03 C5.77 22.16, 3.05 20.02, 1.69 17.81 C0.34 15.61, -0.28 12.32, 0.19 9.81 C0.66 7.31, 2.44 4.41, 4.52 2.78 C6.59 1.14, 11.29 0.42, 12.65 0 C14 -0.42, 12.65 0.04, 12.65 0.24" stroke="none" stroke-width="0" fill="#7950f2"></path><path d="M12.65 0 C15.22 -0.15, 18.7 1.14, 20.78 2.78 C22.85 4.41, 24.63 7.31, 25.1 9.81 C25.57 12.32, 24.95 15.61, 23.6 17.81 C22.24 20.02, 19.52 22.16, 16.97 23.03 C14.43 23.9, 10.87 23.9, 8.32 23.03 C5.77 22.16, 3.05 20.02, 1.69 17.81 C0.34 15.61, -0.28 12.32, 0.19 9.81 C0.66 7.31, 2.44 4.41, 4.52 2.78 C6.59 1.14, 11.29 0.42, 12.65 0 C14 -0.42, 12.65 0.04, 12.65 0.24" stroke="#000000" stroke-width="1.5" fill="none" stroke-dasharray="8 9"></path></g><g transform="translate(58.87109375 1035.3056640625) rotate(0 36 12.5)"><text x="0" y="18" font-family="Virgil, Segoe UI Emoji" font-size="20px" fill="#000000" text-anchor="start" style="white-space: pre;" direction="ltr">Discord</text></g><g transform="translate(29.34375 1075.0908203125) rotate(0 150 50)"><text x="0" y="14" font-family="Virgil, Segoe UI Emoji" font-size="16px" fill="#000000" text-anchor="start" style="white-space: pre;" direction="ltr">Lorem Ipsum is simply dummy text of </text><text x="0" y="34" font-family="Virgil, Segoe UI Emoji" font-size="16px" fill="#000000" text-anchor="start" style="white-space: pre;" direction="ltr">the printing and typesetting industry. </text><text x="0" y="54" font-family="Virgil, Segoe UI Emoji" font-size="16px" fill="#000000" text-anchor="start" style="white-space: pre;" direction="ltr">Lorem Ipsum has been the industry's </text><text x="0" y="74" font-family="Virgil, Segoe UI Emoji" font-size="16px" fill="#000000" text-anchor="start" style="white-space: pre;" direction="ltr">standard dummy text ever since the </text><text x="0" y="94" font-family="Virgil, Segoe UI Emoji" font-size="16px" fill="#000000" text-anchor="start" style="white-space: pre;" direction="ltr">1500s, when an unknown printer took </text></g><g transform="translate(239.0703125 1039.8408203125) rotate(0 36 10)"><text x="0" y="14" font-family="Virgil, Segoe UI Emoji" font-size="16px" fill="#000000" text-anchor="start" style="white-space: pre;" direction="ltr">John Doe</text></g><g stroke-linecap="round" transform="translate(11.77734375 1224.3583984375) rotate(0 168.6953125 87.212890625)"><path d="M0 0 C86.9 0, 173.8 0, 337.39 0 M337.39 0 C337.39 61.71, 337.39 123.42, 337.39 174.43 M337.39 174.43 C219.92 174.43, 102.45 174.43, 0 174.43 M0 174.43 C0 136.34, 0 98.25, 0 0" stroke="#000000" stroke-width="1.5" fill="none" stroke-dasharray="8 9"></path></g><g stroke-linecap="round" transform="translate(22.50390625 1238.4794921875) rotate(0 12.646484375 11.875)"><path d="M12.65 0 C15.22 -0.15, 18.7 1.14, 20.78 2.78 C22.85 4.41, 24.63 7.31, 25.1 9.81 C25.57 12.32, 24.95 15.61, 23.6 17.81 C22.24 20.02, 19.52 22.16, 16.97 23.03 C14.43 23.9, 10.87 23.9, 8.32 23.03 C5.77 22.16, 3.05 20.02, 1.69 17.81 C0.34 15.61, -0.28 12.32, 0.19 9.81 C0.66 7.31, 2.44 4.41, 4.52 2.78 C6.59 1.14, 11.29 0.42, 12.65 0 C14 -0.42, 12.65 0.04, 12.65 0.24" stroke="none" stroke-width="0" fill="#40c057"></path><path d="M12.65 0 C15.22 -0.15, 18.7 1.14, 20.78 2.78 C22.85 4.41, 24.63 7.31, 25.1 9.81 C25.57 12.32, 24.95 15.61, 23.6 17.81 C22.24 20.02, 19.52 22.16, 16.97 23.03 C14.43 23.9, 10.87 23.9, 8.32 23.03 C5.77 22.16, 3.05 20.02, 1.69 17.81 C0.34 15.61, -0.28 12.32, 0.19 9.81 C0.66 7.31, 2.44 4.41, 4.52 2.78 C6.59 1.14, 11.29 0.42, 12.65 0 C14 -0.42, 12.65 0.04, 12.65 0.24" stroke="#000000" stroke-width="1.5" fill="none" stroke-dasharray="8 9"></path></g><g transform="translate(60.6484375 1240.2724609375) rotate(0 37.5 12.5)"><text x="0" y="18" font-family="Virgil, Segoe UI Emoji" font-size="20px" fill="#000000" text-anchor="start" style="white-space: pre;" direction="ltr">Twitter</text></g><g transform="translate(31.12109375 1280.0576171875) rotate(0 150 50)"><text x="0" y="14" font-family="Virgil, Segoe UI Emoji" font-size="16px" fill="#000000" text-anchor="start" style="white-space: pre;" direction="ltr">Lorem Ipsum is simply dummy text of </text><text x="0" y="34" font-family="Virgil, Segoe UI Emoji" font-size="16px" fill="#000000" text-anchor="start" style="white-space: pre;" direction="ltr">the printing and typesetting industry. </text><text x="0" y="54" font-family="Virgil, Segoe UI Emoji" font-size="16px" fill="#000000" text-anchor="start" style="white-space: pre;" direction="ltr">Lorem Ipsum has been the industry's </text><text x="0" y="74" font-family="Virgil, Segoe UI Emoji" font-size="16px" fill="#000000" text-anchor="start" style="white-space: pre;" direction="ltr">standard dummy text ever since the </text><text x="0" y="94" font-family="Virgil, Segoe UI Emoji" font-size="16px" fill="#000000" text-anchor="start" style="white-space: pre;" direction="ltr">1500s, when an unknown printer took </text></g><g transform="translate(240.84765625 1244.8076171875) rotate(0 36 10)"><text x="0" y="14" font-family="Virgil, Segoe UI Emoji" font-size="16px" fill="#000000" text-anchor="start" style="white-space: pre;" direction="ltr">John Doe</text></g><g stroke-linecap="round" transform="translate(10.57421875 1430.7451171875) rotate(0 168.6953125 87.212890625)"><path d="M0 0 C113.53 0, 227.05 0, 337.39 0 M337.39 0 C337.39 53.73, 337.39 107.47, 337.39 174.43 M337.39 174.43 C202.95 174.43, 68.51 174.43, 0 174.43 M0 174.43 C0 133.61, 0 92.8, 0 0" stroke="#000000" stroke-width="1.5" fill="none" stroke-dasharray="8 9"></path></g><g stroke-linecap="round" transform="translate(21.30078125 1444.8662109375) rotate(0 12.646484375 11.875)"><path d="M12.65 0 C15.22 -0.15, 18.7 1.14, 20.78 2.78 C22.85 4.41, 24.63 7.31, 25.1 9.81 C25.57 12.32, 24.95 15.61, 23.6 17.81 C22.24 20.02, 19.52 22.16, 16.97 23.03 C14.43 23.9, 10.87 23.9, 8.32 23.03 C5.77 22.16, 3.05 20.02, 1.69 17.81 C0.34 15.61, -0.28 12.32, 0.19 9.81 C0.66 7.31, 2.44 4.41, 4.52 2.78 C6.59 1.14, 11.29 0.42, 12.65 0 C14 -0.42, 12.65 0.04, 12.65 0.24" stroke="none" stroke-width="0" fill="#228be6"></path><path d="M12.65 0 C15.22 -0.15, 18.7 1.14, 20.78 2.78 C22.85 4.41, 24.63 7.31, 25.1 9.81 C25.57 12.32, 24.95 15.61, 23.6 17.81 C22.24 20.02, 19.52 22.16, 16.97 23.03 C14.43 23.9, 10.87 23.9, 8.32 23.03 C5.77 22.16, 3.05 20.02, 1.69 17.81 C0.34 15.61, -0.28 12.32, 0.19 9.81 C0.66 7.31, 2.44 4.41, 4.52 2.78 C6.59 1.14, 11.29 0.42, 12.65 0 C14 -0.42, 12.65 0.04, 12.65 0.24" stroke="#000000" stroke-width="1.5" fill="none" stroke-dasharray="8 9"></path></g><g transform="translate(58.296875 1446.2763671875) rotate(0 31.5 12.5)"><text x="0" y="18" font-family="Virgil, Segoe UI Emoji" font-size="20px" fill="#000000" text-anchor="start" style="white-space: pre;" direction="ltr">Github</text></g><g transform="translate(29.91796875 1486.4443359375) rotate(0 150 50)"><text x="0" y="14" font-family="Virgil, Segoe UI Emoji" font-size="16px" fill="#000000" text-anchor="start" style="white-space: pre;" direction="ltr">Lorem Ipsum is simply dummy text of </text><text x="0" y="34" font-family="Virgil, Segoe UI Emoji" font-size="16px" fill="#000000" text-anchor="start" style="white-space: pre;" direction="ltr">the printing and typesetting industry. </text><text x="0" y="54" font-family="Virgil, Segoe UI Emoji" font-size="16px" fill="#000000" text-anchor="start" style="white-space: pre;" direction="ltr">Lorem Ipsum has been the industry's </text><text x="0" y="74" font-family="Virgil, Segoe UI Emoji" font-size="16px" fill="#000000" text-anchor="start" style="white-space: pre;" direction="ltr">standard dummy text ever since the </text><text x="0" y="94" font-family="Virgil, Segoe UI Emoji" font-size="16px" fill="#000000" text-anchor="start" style="white-space: pre;" direction="ltr">1500s, when an unknown printer took </text></g><g transform="translate(239.64453125 1451.1943359375) rotate(0 36 10)"><text x="0" y="14" font-family="Virgil, Segoe UI Emoji" font-size="16px" fill="#000000" text-anchor="start" style="white-space: pre;" direction="ltr">John Doe</text></g></svg>