<svg id="logomark_black" data-name="logomark black" xmlns="http://www.w3.org/2000/svg" viewBox="0 0 14 14"><defs><style>.cls-1{fill-rule:evenodd;}</style></defs><path class="cls-1" d="M2.62,10.15A.45.45,0,0,1,3,10H13.44a.23.23,0,0,1,.17.38l-2.23,2.46A.45.45,0,0,1,11,13H.56a.23.23,0,0,1-.17-.38Zm11-2a.23.23,0,0,1-.17.38H3a.45.45,0,0,1-.34-.15L.39,5.89a.23.23,0,0,1,.17-.38H11a.45.45,0,0,1,.34.15Zm-11-7A.45.45,0,0,1,3,1H13.44a.23.23,0,0,1,.17.38L11.38,3.85A.45.45,0,0,1,11,4H.56a.23.23,0,0,1-.17-.38Z"/></svg>